<svg xmlns="http://www.w3.org/2000/svg" viewBox="0 0 32 32">
  <rect width="32" height="32" fill="#050505"/>
  <g fill="none" stroke="#f4f4f5" stroke-width="1.4">
    <path d="M17.8 6.2c4.2 1 7.5 4.4 7.9 8.6.4 4.6-2.4 9.2-6.7 10.8-4.2 1.6-9.3.2-11.9-3.4-2.4-3.4-2.3-8.4.3-11.7 2.4-3.1 6.6-5.2 10.4-4.3z" opacity="0.55"/>
    <path d="M17.6 9.4c2.9.7 5.2 3 5.6 5.9.4 3.2-1.6 6.4-4.6 7.5-2.9 1.1-6.5.1-8.3-2.4-1.7-2.4-1.6-5.9.2-8.2 1.7-2.2 4.5-3.4 7.1-2.8z" opacity="0.75"/>
    <path d="M17.4 12.6c1.7.4 3 1.8 3.2 3.4.2 1.9-.9 3.7-2.6 4.3-1.7.6-3.7.1-4.8-1.4-1-1.4-.9-3.4.1-4.7 1-1.3 2.6-2 4.1-1.6z" opacity="0.95"/>
  </g>
  <circle cx="17.9" cy="14.7" r="1.6" fill="#f4f4f5"/>
</svg>
